<svg width="20" height="14" viewBox="0 0 20 14" fill="none" xmlns="http://www.w3.org/2000/svg">
<path fill-rule="evenodd" clip-rule="evenodd" d="M17.2727 4.33194H16.3636C16.1681 4.33414 15.9732 4.35545 15.7818 4.39557C14.7435 2.13731 12.4855 0.690216 10 0.690216C7.51449 0.690216 5.25645 2.13731 4.21818 4.39557C4.02678 4.35545 3.83191 4.33414 3.63636 4.33194H2.72727C1.22104 4.33194 0 5.55298 0 7.05921V10.6956C0 12.2018 1.22104 13.4228 2.72727 13.4228H3.63636C5.14259 13.4228 6.36364 12.2018 6.36364 10.6956V7.05921C6.35858 6.45136 6.15061 5.86263 5.77273 5.38648C6.45841 3.65157 8.13451 2.51175 10 2.51175C11.8655 2.51175 13.5416 3.65157 14.2273 5.38648C13.8494 5.86263 13.6414 6.45136 13.6364 7.05921V10.6956C13.6364 12.2018 14.8574 13.4228 16.3636 13.4228H17.2727C18.779 13.4228 20 12.2018 20 10.6956V7.05921C20 5.55298 18.779 4.33194 17.2727 4.33194ZM4.54545 10.6956C4.54545 11.1977 4.13844 11.6047 3.63636 11.6047H2.72727C2.2252 11.6047 1.81818 11.1977 1.81818 10.6956V7.05923C1.81818 6.55716 2.2252 6.15014 2.72727 6.15014H3.63636C4.13844 6.15014 4.54545 6.55716 4.54545 7.05923V10.6956ZM17.2727 11.6047C17.7748 11.6047 18.1818 11.1977 18.1818 10.6956V7.05923C18.1818 6.55716 17.7748 6.15014 17.2727 6.15014H16.3636C15.8616 6.15014 15.4545 6.55716 15.4545 7.05923V10.6956C15.4545 11.1977 15.8616 11.6047 16.3636 11.6047H17.2727Z" fill="currentColor"/>
</svg>
