<svg width="20" height="12" viewBox="0 0 20 12" fill="none" xmlns="http://www.w3.org/2000/svg">
<path fill-rule="evenodd" clip-rule="evenodd" d="M17.2727 3.43218H16.3636C16.1681 3.43425 15.9732 3.45434 15.7818 3.49215C14.7435 1.36383 12.4855 0 10 0C7.51449 0 5.25645 1.36383 4.21818 3.49215C4.02678 3.45434 3.83191 3.43425 3.63636 3.43218H2.72727C1.22104 3.43218 0 4.58296 0 6.00252V9.42965C0 10.8492 1.22104 12 2.72727 12H3.63636C5.14259 12 6.36364 10.8492 6.36364 9.42965V6.00252C6.35858 5.42965 6.15061 4.87479 5.77273 4.42605C6.45841 2.79096 8.13451 1.71673 10 1.71673C11.8655 1.71673 13.5416 2.79096 14.2273 4.42605C13.8494 4.87479 13.6414 5.42965 13.6364 6.00252V9.42965C13.6364 10.8492 14.8574 12 16.3636 12H17.2727C18.779 12 20 10.8492 20 9.42965V6.00252C20 4.58296 18.779 3.43218 17.2727 3.43218ZM4.54563 9.42971C4.54563 9.9029 4.13862 10.2865 3.63654 10.2865H2.72745C2.22537 10.2865 1.81836 9.9029 1.81836 9.42971V6.00258C1.81836 5.52939 2.22537 5.1458 2.72745 5.1458H3.63654C4.13862 5.1458 4.54563 5.52939 4.54563 6.00258V9.42971ZM17.2733 10.2865C17.7753 10.2865 18.1824 9.9029 18.1824 9.42971V6.00258C18.1824 5.52939 17.7753 5.1458 17.2733 5.1458H16.3642C15.8621 5.1458 15.4551 5.52939 15.4551 6.00258V9.42971C15.4551 9.9029 15.8621 10.2865 16.3642 10.2865H17.2733Z" fill="url(#paint0_linear_23_54080)"/>
<defs>
<linearGradient id="paint0_linear_23_54080" x1="-7.45058e-08" y1="6" x2="20" y2="6" gradientUnits="userSpaceOnUse">
<stop stop-color="#8CD23C"/>
<stop offset="1" stop-color="#417A00"/>
</linearGradient>
</defs>
</svg>
