<svg viewBox="0 0 14 11" fill="none" xmlns="http://www.w3.org/2000/svg">
<path d="M0.5 2H13.5C13.7762 2 14 1.80103 14 1.55556V0.444444C14 0.198972 13.7762 0 13.5 0H0.5C0.223844 0 0 0.198972 0 0.444444V1.55556C0 1.80103 0.223844 2 0.5 2ZM0.5 6.44444H13.5C13.7762 6.44444 14 6.24547 14 6V4.88889C14 4.64342 13.7762 4.44444 13.5 4.44444H0.5C0.223844 4.44444 0 4.64342 0 4.88889V6C0 6.24547 0.223844 6.44444 0.5 6.44444ZM0.5 10.8889H13.5C13.7762 10.8889 14 10.6899 14 10.4444V9.33333C14 9.08786 13.7762 8.88889 13.5 8.88889H0.5C0.223844 8.88889 0 9.08786 0 9.33333V10.4444C0 10.6899 0.223844 10.8889 0.5 10.8889Z" fill="currentColor"/>
</svg>
