<svg viewBox="0 0 18 18" fill="none" xmlns="http://www.w3.org/2000/svg">
<path d="M0.424023 17.576C-0.0462888 17.1028 -0.0462888 16.3387 0.424023 15.8656L15.8656 0.424038C16.1621 0.0778742 16.6275 -0.0729097 17.0706 0.0336795C17.5137 0.140269 17.8597 0.486241 17.9663 0.929353C18.0729 1.37247 17.9221 1.83793 17.5759 2.13438L2.13436 17.576C1.66124 18.0463 0.897141 18.0463 0.424023 17.576Z" fill="currentColor"/>
<path d="M0.424023 0.424023C0.897141 -0.0462888 1.66124 -0.0462888 2.13436 0.424023L17.5759 15.8656C17.9221 16.1621 18.0729 16.6275 17.9663 17.0706C17.8597 17.5137 17.5137 17.8597 17.0706 17.9663C16.6275 18.0729 16.1621 17.9221 15.8656 17.5759L0.424023 2.13436C-0.0462888 1.66124 -0.0462888 0.897141 0.424023 0.424023Z" fill="currentColor"/>
</svg>
