<svg viewBox="0 0 23 18" fill="none" xmlns="http://www.w3.org/2000/svg">
<path fill-rule="evenodd" clip-rule="evenodd" d="M6.00689 10.4136L11.0819 15.0674V15.0674L16.1568 10.4136V10.4136L19.0394 7.77019C20.4408 6.48508 20.4408 4.4015 19.0394 3.11639C17.638 1.83128 15.3659 1.83128 13.9644 3.11639L11.0819 5.77836L8.19927 3.135C6.79786 1.84989 4.52572 1.84989 3.1243 3.135C1.72289 4.42012 1.72289 6.50369 3.1243 7.78881L6.00689 10.4136ZM12.5024 1.82265C14.6914 -0.184698 18.2405 -0.184698 20.4295 1.82265C22.6185 3.82999 22.6185 7.08454 20.4295 9.09189L18.9882 10.4136V10.4136L11.0814 17.6828V17.6828L3.15434 10.4136V10.4136L1.71305 9.09189C-0.475963 7.08454 -0.475963 3.82999 1.71305 1.82265C3.90205 -0.184698 7.45114 -0.184698 9.64015 1.82265L11.0814 3.14433L12.5024 1.82265Z" fill="currentColor"/>
</svg>
