<svg width="20" height="20" viewBox="0 0 20 20" fill="none" xmlns="http://www.w3.org/2000/svg">
<path fill-rule="evenodd" clip-rule="evenodd" d="M2.72727 20H17.2727C18.779 20 20 18.779 20 17.2727V8.18182C20 6.67559 18.779 5.45455 17.2727 5.45455H15.4545V2.72727C15.4545 1.22104 14.2335 0 12.7273 0H7.27273C5.7665 0 4.54545 1.22104 4.54545 2.72727V5.45455H2.72727C1.22104 5.45455 0 6.67559 0 8.18182V17.2727C0 18.779 1.22104 20 2.72727 20ZM6.36364 2.72727C6.36364 2.2252 6.77065 1.81818 7.27273 1.81818H12.7273C13.2294 1.81818 13.6364 2.2252 13.6364 2.72727V5.45455H6.36364V2.72727ZM1.81818 8.18182C1.81818 7.67974 2.2252 7.27273 2.72727 7.27273H17.2727C17.7748 7.27273 18.1818 7.67974 18.1818 8.18182V17.2727C18.1818 17.7748 17.7748 18.1818 17.2727 18.1818H2.72727C2.2252 18.1818 1.81818 17.7748 1.81818 17.2727V8.18182Z" fill="url(#paint0_linear_23_35356)"/>
<path fill-rule="evenodd" clip-rule="evenodd" d="M9.13548 13.837C9.11074 13.9168 9.09549 13.9992 9.09002 14.0825V16.8098C9.09002 17.3118 9.49704 17.7188 9.99911 17.7188C10.5012 17.7188 10.9082 17.3118 10.9082 16.8098V14.0825C10.9082 14.0825 10.9082 14.0279 10.9082 14.0007C12.2051 13.6888 13.0862 12.4846 12.9909 11.1542C12.8956 9.82369 11.852 8.75735 10.5239 8.63348C9.19575 8.50961 7.9729 9.36458 7.63324 10.6545C7.29358 11.9444 7.93677 13.2907 9.15366 13.837H9.13548ZM10.2631 10.446C10.7652 10.446 11.1722 10.853 11.1722 11.3551C11.1722 11.8571 10.7652 12.2642 10.2631 12.2642C9.76106 12.2642 9.35405 11.8571 9.35405 11.3551C9.35405 10.853 9.76106 10.446 10.2631 10.446Z" fill="url(#paint1_linear_23_35356)"/>
<defs>
<linearGradient id="paint0_linear_23_35356" x1="4.54545" y1="16.9091" x2="14.9091" y2="3.09091" gradientUnits="userSpaceOnUse">
<stop stop-color="#339CFC"/>
<stop offset="1" stop-color="#1E61EB"/>
</linearGradient>
<linearGradient id="paint1_linear_23_35356" x1="8.78274" y1="16.3129" x2="13.5728" y2="12.4832" gradientUnits="userSpaceOnUse">
<stop stop-color="#339CFC"/>
<stop offset="1" stop-color="#1E61EB"/>
</linearGradient>
</defs>
</svg>
