<svg width="30" height="30" viewBox="0 0 30 30" fill="none" xmlns="http://www.w3.org/2000/svg">
<path fill-rule="evenodd" clip-rule="evenodd" d="M20 4H9C8.20435 4 7.44129 4.31607 6.87868 4.87868C6.31607 5.44129 6 6.20435 6 7V24.8C6.00064 25.2303 6.25209 25.6207 6.64357 25.7992C7.03506 25.9777 7.4947 25.9116 7.82 25.63L10.5 23.33L13.29 25.72C13.6649 26.0427 14.2091 26.0754 14.62 25.8L18.42 23.26L21.18 25.63C21.5053 25.9116 21.9649 25.9777 22.3564 25.7992C22.7479 25.6207 22.9994 25.2303 23 24.8V7C23 5.34315 21.6569 4 20 4ZM9.78 21.3L8 22.83V7C8 6.44772 8.44771 6 9 6H20C20.5523 6 21 6.44772 21 7V22.84L19.21 21.29C18.8337 20.9706 18.2918 20.938 17.88 21.21L14.08 23.75L11.22 21.3C10.8036 20.9505 10.1964 20.9505 9.78 21.3Z" fill="currentColor"/>
<path fill-rule="evenodd" clip-rule="evenodd" d="M20 4H9C8.20435 4 7.44129 4.31607 6.87868 4.87868C6.31607 5.44129 6 6.20435 6 7V24.8C6.00064 25.2303 6.25209 25.6207 6.64357 25.7992C7.03506 25.9777 7.4947 25.9116 7.82 25.63L10.5 23.33L13.29 25.72C13.6649 26.0427 14.2091 26.0754 14.62 25.8L18.42 23.26L21.18 25.63C21.5053 25.9116 21.9649 25.9777 22.3564 25.7992C22.7479 25.6207 22.9994 25.2303 23 24.8V7C23 5.34315 21.6569 4 20 4ZM9.78 21.3L8 22.83V7C8 6.44772 8.44771 6 9 6H20C20.5523 6 21 6.44772 21 7V22.84L19.21 21.29C18.8337 20.9706 18.2918 20.938 17.88 21.21L14.08 23.75L11.22 21.3C10.8036 20.9505 10.1964 20.9505 9.78 21.3Z" fill="currentColor"/>
<path d="M19 10H12C11.4477 10 11 9.55228 11 9C11 8.44772 11.4477 8 12 8H19C19.5523 8 20 8.44772 20 9C20 9.55228 19.5523 10 19 10Z" fill="currentColor"/>
<path d="M19 10H12C11.4477 10 11 9.55228 11 9C11 8.44772 11.4477 8 12 8H19C19.5523 8 20 8.44772 20 9C20 9.55228 19.5523 10 19 10Z" fill="currentColor"/>
<path d="M19 14H15C14.4477 14 14 13.5523 14 13C14 12.4477 14.4477 12 15 12H19C19.5523 12 20 12.4477 20 13C20 13.5523 19.5523 14 19 14Z" fill="currentColor"/>
<path d="M19 14H15C14.4477 14 14 13.5523 14 13C14 12.4477 14.4477 12 15 12H19C19.5523 12 20 12.4477 20 13C20 13.5523 19.5523 14 19 14Z" fill="currentColor"/>
<path d="M11 16H19C19.5523 16 20 16.4477 20 17C20 17.5523 19.5523 18 19 18H11C10.4477 18 10 17.5523 10 17C10 16.4477 10.4477 16 11 16Z" fill="currentColor"/>
<path d="M11 16H19C19.5523 16 20 16.4477 20 17C20 17.5523 19.5523 18 19 18H11C10.4477 18 10 17.5523 10 17C10 16.4477 10.4477 16 11 16Z" fill="currentColor"/>
</svg>
