<svg  viewBox="0 0 21 20" fill="none" xmlns="http://www.w3.org/2000/svg">
<path fill-rule="evenodd" clip-rule="evenodd" d="M3.25657 0H17.802C19.3083 0 20.5293 1.4396 20.5293 3.21543V12.8617C20.5293 14.6376 19.3083 16.0772 17.802 16.0772H10.9838L8.89293 19.3569C8.6354 19.7617 8.23124 20 7.80202 20C7.37281 20 6.96864 19.7617 6.71112 19.3569L4.62021 16.0772H3.25657C1.75034 16.0772 0.529297 14.6376 0.529297 12.8617V3.21543C0.529297 1.4396 1.75034 0 3.25657 0ZM17.8022 13.9336C18.3043 13.9336 18.7113 13.4538 18.7113 12.8618V3.21551C18.7113 2.62356 18.3043 2.1437 17.8022 2.1437H3.25675C2.75467 2.1437 2.34766 2.62356 2.34766 3.21551V12.8618C2.34766 13.4538 2.75467 13.9336 3.25675 13.9336H5.52947L7.8022 17.5028L10.0749 13.9336H17.8022Z" fill="currentColor"/>
<path d="M5.07511 6.43085H9.62056C10.1226 6.43085 10.5297 5.95099 10.5297 5.35904C10.5297 4.7671 10.1226 4.28723 9.62056 4.28723H5.07511C4.57303 4.28723 4.16602 4.7671 4.16602 5.35904C4.16602 5.95099 4.57303 6.43085 5.07511 6.43085Z" fill="currentColor"/>
<path d="M15.0751 8.57446H5.07511C4.57303 8.57446 4.16602 9.05433 4.16602 9.64627C4.16602 10.2382 4.57303 10.7181 5.07511 10.7181H15.0751C15.5772 10.7181 15.9842 10.2382 15.9842 9.64627C15.9842 9.05433 15.5772 8.57446 15.0751 8.57446Z" fill="currentColor"/>
</svg>
