<svg viewBox="0 0 16 10" fill="none" xmlns="http://www.w3.org/2000/svg">
<path d="M0.944329 5.62321L13.4 5.62321L11.1809 8.44201C11.0235 8.64128 10.9509 8.89608 10.9793 9.14987C11.0077 9.40366 11.1346 9.63547 11.3319 9.79388C11.7393 10.1202 12.3297 10.0517 12.654 9.64048L15.7514 5.71908C16.0829 5.29876 16.0829 4.70124 15.7514 4.28092L12.654 0.359522C12.3297 -0.0517052 11.7393 -0.120209 11.3319 0.206118C11.1346 0.364527 11.0077 0.596337 10.9793 0.85013C10.9509 1.10392 11.0235 1.35872 11.1809 1.55799L12.8806 3.70565L0.944329 3.70565C0.42279 3.70565 0 4.13491 0 4.66443C0 5.19395 0.42279 5.62321 0.944329 5.62321Z" fill="currentColor"/>
</svg>
