<svg width="26" height="26" viewBox="0 0 26 26" fill="none" xmlns="http://www.w3.org/2000/svg">
<g clip-path="url(#clip0_437_26916)">
<path d="M16.991 -0.000244141H9.009C1.72467 -0.000244141 0 1.72442 0 9.00876V16.9908C0 24.2751 1.72467 25.9998 9.009 25.9998H16.991C24.2753 25.9998 26 24.2751 26 16.9908V9.00876C26 1.72442 24.2569 -0.000244141 16.991 -0.000244141ZM20.9907 18.5497H19.1013C18.3863 18.5497 18.1653 17.9809 16.8805 16.6788C15.7614 15.5954 15.2663 15.4492 14.9912 15.4492C14.6055 15.4492 14.495 15.5597 14.495 16.0916V17.7978C14.495 18.2572 14.3488 18.5323 13.1376 18.5323C11.1378 18.5323 8.91692 17.3212 7.358 15.0635C5.00933 11.7615 4.36583 9.28392 4.36583 8.77042C4.36583 8.49526 4.47633 8.23851 5.00825 8.23851H6.89758C7.37425 8.23851 7.55842 8.45842 7.74258 8.97192C8.6775 11.6694 10.2375 14.0365 10.8799 14.0365C11.1183 14.0365 11.2288 13.926 11.2288 13.3215V10.5308C11.1551 9.24601 10.4758 9.13659 10.4758 8.67834C10.4758 8.45734 10.66 8.23742 10.9525 8.23742H13.9252C14.3293 8.23742 14.4755 8.45734 14.4755 8.93401V12.6964C14.4755 13.0994 14.6597 13.2468 14.7691 13.2468C15.0074 13.2468 15.21 13.0994 15.6498 12.6596C17.0083 11.1364 17.9801 8.78776 17.9801 8.78776C18.109 8.51259 18.3289 8.25584 18.8067 8.25584H20.696C21.2648 8.25584 21.3937 8.54834 21.2647 8.95242C21.0264 10.0542 18.7146 13.3193 18.7146 13.3193C18.5131 13.6498 18.4394 13.796 18.7146 14.1643C18.9161 14.4395 19.5769 15.0083 20.0178 15.5218C20.8249 16.4393 21.4478 17.2096 21.6136 17.7426C21.7978 18.2734 21.5215 18.5486 20.9896 18.5486L20.9907 18.5497Z" fill="#A6A6A7"/>
</g>
<defs>
<clipPath id="clip0_437_26916">
<rect width="26" height="26" fill="white" transform="translate(0 -0.000244141)"/>
</clipPath>
</defs>
</svg>
