<svg viewBox="0 0 42 41" fill="none" xmlns="http://www.w3.org/2000/svg">
<path d="M33.4121 13.3373C33.9099 13.0602 34.5544 13.2306 34.8115 13.7376C36.436 16.9415 36.8127 20.6155 35.8492 24.0822C34.794 27.8791 32.2175 31.1163 28.6865 33.0817C25.1556 35.0471 20.9594 35.5797 17.0211 34.5624C13.4253 33.6335 10.3135 31.4819 8.24776 28.5236C7.92085 28.0554 8.09008 27.4322 8.58791 27.1551V27.1551C9.08573 26.878 9.72321 27.0524 10.0553 27.5171C11.8412 30.0159 14.4975 31.8327 17.5599 32.6238C20.9649 33.5034 24.5929 33.0429 27.6457 31.3437C30.6985 29.6444 32.9261 26.8455 33.8385 23.5628C34.659 20.6103 34.3553 17.484 33.0036 14.7436C32.7522 14.2339 32.9142 13.6144 33.4121 13.3373V13.3373Z" fill="#E2E3F3" fill-opacity="0.65"/>
<path d="M33.4121 13.3373C33.9099 13.0602 34.5544 13.2306 34.8115 13.7376C36.436 16.9415 36.8127 20.6155 35.8492 24.0822C34.794 27.8791 32.2175 31.1163 28.6865 33.0817C25.1556 35.0471 20.9594 35.5797 17.0211 34.5624C13.4253 33.6335 10.3135 31.4819 8.24776 28.5236C7.92085 28.0554 8.09008 27.4322 8.58791 27.1551V27.1551C9.08573 26.878 9.72321 27.0524 10.0553 27.5171C11.8412 30.0159 14.4975 31.8327 17.5599 32.6238C20.9649 33.5034 24.5929 33.0429 27.6457 31.3437C30.6985 29.6444 32.9261 26.8455 33.8385 23.5628C34.659 20.6103 34.3553 17.484 33.0036 14.7436C32.7522 14.2339 32.9142 13.6144 33.4121 13.3373V13.3373Z" fill="#E2E3F3" fill-opacity="0.65"/>
<path d="M6.1969 19.8531C5.60318 19.8531 5.11757 19.3711 5.1632 18.7791C5.43732 15.2227 7.06586 11.8625 9.77245 9.3244C12.7502 6.53201 16.7888 4.96326 20.9999 4.96326C25.2111 4.96326 29.2497 6.53201 32.2274 9.3244C34.934 11.8625 36.5626 15.2227 36.8367 18.7791C36.8823 19.3711 36.3967 19.8531 35.803 19.8531V19.8531C35.2093 19.8531 34.7329 19.3708 34.6801 18.7794C34.4106 15.7584 33.0104 12.91 30.7071 10.7501C28.1326 8.33583 24.6408 6.97951 20.9999 6.97951C17.359 6.97951 13.8673 8.33583 11.2928 10.7501C8.98952 12.91 7.58923 15.7584 7.31973 18.7794C7.26697 19.3708 6.79063 19.8531 6.1969 19.8531V19.8531Z" fill="url(#paint0_linear_157_7320)"/>
<path d="M21 33.7349C21 34.2917 20.5481 34.7462 19.9923 34.7131C16.149 34.484 12.5118 32.9507 9.77247 30.3819C6.79475 27.5895 5.12189 23.8022 5.12189 19.8532C5.12189 15.9041 6.79475 12.1168 9.77246 9.32444C12.5118 6.75561 16.149 5.22233 19.9923 4.99329C20.5481 4.96016 20.9999 5.41465 20.9999 5.97142V5.97142C20.9999 6.52819 20.548 6.97592 19.9926 7.01423C16.72 7.23991 13.6288 8.55952 11.2928 10.7501C8.71828 13.1644 7.27195 16.4389 7.27195 19.8532C7.27195 23.2675 8.71829 26.5419 11.2928 28.9562C13.6288 31.1468 16.72 32.4664 19.9926 32.6921C20.548 32.7304 21 33.1781 21 33.7349V33.7349Z" fill="url(#paint1_linear_157_7320)"/>
<path d="M28 20L17.5 26.0622L17.5 13.9378L28 20Z" stroke="#D9D9D9" stroke-width="2"/>
<defs>
<linearGradient id="paint0_linear_157_7320" x1="29.6607" y1="30.1407" x2="14.533" y2="8.63175" gradientUnits="userSpaceOnUse">
<stop stop-color="#339CFC"/>
<stop offset="1" stop-color="#0046D6"/>
</linearGradient>
<linearGradient id="paint1_linear_157_7320" x1="12.3392" y1="9.56562" x2="27.4669" y2="31.0745" gradientUnits="userSpaceOnUse">
<stop stop-color="#339CFC"/>
<stop offset="1" stop-color="#0046D6"/>
</linearGradient>
</defs>
</svg>
