<svg viewBox="0 0 17 17" fill="none" xmlns="http://www.w3.org/2000/svg">
<path fill-rule="evenodd" clip-rule="evenodd" d="M-3.93136e-07 7.5061C9.71105e-05 10.2352 1.58105 12.7172 4.05425 13.8709C6.52745 15.0247 9.4451 14.6414 11.5364 12.888L14.8814 16.2418C15.1041 16.4645 15.4287 16.5515 15.7329 16.4699C16.0371 16.3884 16.2747 16.1508 16.3562 15.8466C16.4378 15.5424 16.3508 15.2178 16.1281 14.9951L12.7216 11.6149C13.5853 10.4258 14.0495 8.99334 14.0473 7.52366C14.0473 3.6446 10.9027 0.5 7.02366 0.5C3.1446 0.5 -5.61927e-07 3.6446 -3.92368e-07 7.52366L-3.93136e-07 7.5061ZM12.2914 7.50608C12.2914 10.4154 9.93296 12.7738 7.02366 12.7738C4.11436 12.7738 1.75592 10.4154 1.75591 7.50608C1.75591 4.59678 4.11436 2.23833 7.02366 2.23833C8.42075 2.23833 9.76062 2.79333 10.7485 3.78122C11.7364 4.76911 12.2914 6.10899 12.2914 7.50608Z" fill="currentColor"/>
</svg>
