<svg viewBox="0 0 24 24" fill="none" xmlns="http://www.w3.org/2000/svg">
<g clip-path="url(#clip0_1185_39555)">
<path d="M9.33268 2.6665H3.99935C3.64573 2.6665 3.30659 2.80698 3.05654 3.05703C2.80649 3.30708 2.66602 3.64622 2.66602 3.99984V9.33317C2.66602 9.68679 2.80649 10.0259 3.05654 10.276C3.30659 10.526 3.64573 10.6665 3.99935 10.6665H9.33268C9.6863 10.6665 10.0254 10.526 10.2755 10.276C10.5255 10.0259 10.666 9.68679 10.666 9.33317V3.99984C10.666 3.64622 10.5255 3.30708 10.2755 3.05703C10.0254 2.80698 9.6863 2.6665 9.33268 2.6665ZM3.99935 9.33317V3.99984H9.33268V9.33317H3.99935Z" fill="currentColor"/>
<path d="M20.0007 2.6665H14.6673C14.3137 2.6665 13.9746 2.80698 13.7245 3.05703C13.4745 3.30708 13.334 3.64622 13.334 3.99984V9.33317C13.334 9.68679 13.4745 10.0259 13.7245 10.276C13.9746 10.526 14.3137 10.6665 14.6673 10.6665H20.0007C20.3543 10.6665 20.6934 10.526 20.9435 10.276C21.1935 10.0259 21.334 9.68679 21.334 9.33317V3.99984C21.334 3.64622 21.1935 3.30708 20.9435 3.05703C20.6934 2.80698 20.3543 2.6665 20.0007 2.6665ZM14.6673 9.33317V3.99984H20.0007V9.33317H14.6673Z" fill="currentColor"/>
<path d="M9.33268 13.3335H3.99935C3.64573 13.3335 3.30659 13.474 3.05654 13.724C2.80649 13.9741 2.66602 14.3132 2.66602 14.6668V20.0002C2.66602 20.3538 2.80649 20.6929 3.05654 20.943C3.30659 21.193 3.64573 21.3335 3.99935 21.3335H9.33268C9.6863 21.3335 10.0254 21.193 10.2755 20.943C10.5255 20.6929 10.666 20.3538 10.666 20.0002V14.6668C10.666 14.3132 10.5255 13.9741 10.2755 13.724C10.0254 13.474 9.6863 13.3335 9.33268 13.3335ZM3.99935 20.0002V14.6668H9.33268V20.0002H3.99935Z" fill="currentColor"/>
<path d="M20.0007 13.3335H14.6673C14.3137 13.3335 13.9746 13.474 13.7245 13.724C13.4745 13.9741 13.334 14.3132 13.334 14.6668V20.0002C13.334 20.3538 13.4745 20.6929 13.7245 20.943C13.9746 21.193 14.3137 21.3335 14.6673 21.3335H20.0007C20.3543 21.3335 20.6934 21.193 20.9435 20.943C21.1935 20.6929 21.334 20.3538 21.334 20.0002V14.6668C21.334 14.3132 21.1935 13.9741 20.9435 13.724C20.6934 13.474 20.3543 13.3335 20.0007 13.3335ZM14.6673 20.0002V14.6668H20.0007V20.0002H14.6673Z" fill="currentColor"/>
</g>
<defs>
<clipPath id="clip0_1185_39555">
<rect width="24" height="24"/>
</clipPath>
</defs>
</svg>
