<svg width="20" height="20" viewBox="0 0 20 20" fill="none" xmlns="http://www.w3.org/2000/svg">
<path fill-rule="evenodd" clip-rule="evenodd" d="M17.2727 3.3636H16.3636V2.85281C16.362 2.02533 15.9603 1.24638 15.2782 0.748233C14.5961 0.250083 13.7126 0.090274 12.8909 0.316455L2.48182 3.19627C2.32832 3.24275 2.19029 3.32784 2.08182 3.44286C0.861511 3.73082 0.00199855 4.78891 0 6.00564V16.5738C0 18.0329 1.22104 19.2158 2.72727 19.2158H17.2727C18.779 19.2158 20 18.0329 20 16.5738V6.00564C20 4.54648 18.779 3.3636 17.2727 3.3636ZM13.3896 2.0074C13.6694 1.9312 13.9698 1.98913 14.1981 2.16327C14.4264 2.33741 14.555 2.60679 14.5442 2.88808V3.39887H8.50781L13.3896 2.0074ZM18.1813 12.1708H15.454C14.9519 12.1708 14.5449 11.7765 14.5449 11.2901C14.5449 10.8037 14.9519 10.4094 15.454 10.4094H18.1813V12.1708ZM18.182 8.64755H15.5911C14.2405 8.61412 13.0567 9.5168 12.7729 10.7964C12.6212 11.5701 12.8336 12.369 13.3523 12.9753C13.8709 13.5817 14.6418 13.9323 15.4547 13.9316H18.182V16.5737C18.182 17.06 17.775 17.4543 17.2729 17.4543H2.72745C2.22537 17.4543 1.81836 17.06 1.81836 16.5737V6.00551C1.81836 5.51912 2.22537 5.12483 2.72745 5.12483H17.2729C17.775 5.12483 18.182 5.51912 18.182 6.00551V8.64755Z" fill="url(#paint0_linear_23_54069)"/>
<defs>
<linearGradient id="paint0_linear_23_54069" x1="-7.45058e-08" y1="9.71582" x2="20" y2="9.71582" gradientUnits="userSpaceOnUse">
<stop stop-color="#8CD23C"/>
<stop offset="1" stop-color="#417A00"/>
</linearGradient>
</defs>
</svg>
