<svg width="14" height="20" viewBox="0 0 14 20" fill="none" xmlns="http://www.w3.org/2000/svg">
<path fill-rule="evenodd" clip-rule="evenodd" d="M12.8784 7.71208H8.7493L13.4097 1.92841C13.7081 1.5838 13.7793 1.08847 13.5907 0.669006C13.4021 0.249544 12.9899 -0.0133747 12.5429 0.0005254H6.90378C6.51816 0.00797179 6.16448 0.223774 5.9717 0.569252L0.155543 10.7871C-0.0459598 11.1397 -0.052069 11.5763 0.139481 11.9349C0.331032 12.2934 0.691669 12.5205 1.08762 12.5318H3.51102L0.780035 18.3155C0.533875 18.8119 0.665453 19.4194 1.09289 19.7598C1.52033 20.1002 2.1218 20.0765 2.52302 19.7035L13.6054 9.73636C13.9635 9.42441 14.0935 8.91356 13.9305 8.4597C13.7675 8.00583 13.3465 7.70668 12.8784 7.71208ZM3.55814 16.3875L5.4689 12.3293C5.83241 11.5581 4.47158 10.5749 4.47158 10.5749H2.41169L7.33306 1.89941H10.9495L6.28913 7.68308C5.99202 8.0264 5.92025 8.51933 6.10643 8.93791C6.29261 9.35648 6.70123 9.62088 7.14664 9.61097H11.3223L3.55814 16.3875Z" fill="url(#paint0_linear_23_35342)"/>
<defs>
<linearGradient id="paint0_linear_23_35342" x1="3.18182" y1="16.9091" x2="13.9516" y2="6.85727" gradientUnits="userSpaceOnUse">
<stop stop-color="#339CFC"/>
<stop offset="1" stop-color="#1E61EB"/>
</linearGradient>
</defs>
</svg>
