<svg width="20" height="17" viewBox="0 0 20 17" fill="none" xmlns="http://www.w3.org/2000/svg">
<path fill-rule="evenodd" clip-rule="evenodd" d="M16.2363 3.63635C16.5921 3.62616 16.9308 3.78875 17.1454 4.07271L19.7817 7.59088C19.9258 7.77843 20.0027 8.00895 19.9999 8.24543V13.4545C19.9999 14.057 19.5115 14.5454 18.909 14.5454H16.3636C16.3122 14.5498 16.2605 14.5498 16.209 14.5454C15.8212 15.6305 14.7932 16.3548 13.6409 16.3548C12.4885 16.3548 11.4605 15.6305 11.0727 14.5454H8.01815C7.62668 15.624 6.60196 16.3422 5.45453 16.3422C4.30709 16.3422 3.28238 15.624 2.8909 14.5454H2.72726C1.22104 14.5454 0 13.3244 0 11.8181V2.72726C0 1.22104 1.22104 0 2.72726 0H11.8181C13.3244 0 14.5454 1.22104 14.5454 2.72726V3.63635H16.2363ZM4.54544 13.6363C4.54544 14.1384 4.95245 14.5454 5.45453 14.5454C5.9566 14.5454 6.36361 14.1384 6.36361 13.6363C6.36361 13.1342 5.9566 12.7272 5.45453 12.7272C4.95245 12.7272 4.54544 13.1342 4.54544 13.6363ZM13.6363 14.5454C13.1342 14.5454 12.7272 14.1384 12.7272 13.6363C12.7272 13.1342 13.1342 12.7272 13.6363 12.7272C14.1384 12.7272 14.5454 13.1342 14.5454 13.6363C14.5454 14.1384 14.1384 14.5454 13.6363 14.5454ZM16.3636 12.7272H18.1818V8.48179L15.909 5.45453H14.5454V9.09088C14.5454 9.59295 14.1384 9.99996 13.6363 9.99996C13.1342 9.99996 12.7272 9.59295 12.7272 9.09088V2.72726C12.7272 2.22519 12.3202 1.81818 11.8181 1.81818H2.72726C2.22519 1.81818 1.81818 2.22519 1.81818 2.72726V11.8181C1.81818 12.3202 2.22519 12.7272 2.72726 12.7272H2.8909C3.28238 11.6486 4.30709 10.9304 5.45453 10.9304C6.60196 10.9304 7.62668 11.6486 8.01815 12.7272H11.0727C11.4605 11.6421 12.4885 10.9178 13.6409 10.9178C14.7932 10.9178 15.8212 11.6421 16.209 12.7272C16.2605 12.7228 16.3122 12.7228 16.3636 12.7272Z" fill="url(#paint0_linear_23_54053)"/>
<defs>
<linearGradient id="paint0_linear_23_54053" x1="-7.45061e-08" y1="8.17741" x2="20.0001" y2="8.17741" gradientUnits="userSpaceOnUse">
<stop stop-color="#8CD23C"/>
<stop offset="1" stop-color="#417A00"/>
</linearGradient>
</defs>
</svg>
