<svg viewBox="0 0 20 5" fill="none" xmlns="http://www.w3.org/2000/svg">
<path fill-rule="evenodd" clip-rule="evenodd" d="M2 0.871826C0.895431 0.871826 0 1.76726 0 2.87183C0 3.9764 0.895431 4.87183 2 4.87183C3.10457 4.87183 4 3.9764 4 2.87183C4 1.76726 3.10457 0.871826 2 0.871826Z" fill="currentColor"/>
<path fill-rule="evenodd" clip-rule="evenodd" d="M10 0.871826C8.89543 0.871826 8 1.76726 8 2.87183C8 3.9764 8.89543 4.87183 10 4.87183C11.1046 4.87183 12 3.9764 12 2.87183C12 1.76726 11.1046 0.871826 10 0.871826Z" fill="currentColor"/>
<path fill-rule="evenodd" clip-rule="evenodd" d="M18 0.871826C16.8954 0.871826 16 1.76726 16 2.87183C16 3.9764 16.8954 4.87183 18 4.87183C19.1046 4.87183 20 3.9764 20 2.87183C20 1.76726 19.1046 0.871826 18 0.871826Z" fill="currentColor"/>
</svg>
