<svg width="16" height="13" viewBox="0 0 16 13" fill="none" xmlns="http://www.w3.org/2000/svg">
<path fill-rule="evenodd" clip-rule="evenodd" d="M4.20975 3.40829H15.1159C15.3645 3.40497 15.6027 3.50787 15.7707 3.69114C15.9387 3.87442 16.0205 4.12066 15.9956 4.36803L15.2685 11.3479C15.2277 11.7888 14.8606 12.1276 14.4179 12.1332H5.21312C4.7899 12.1315 4.43001 11.8239 4.36244 11.4061L2.90829 4.29532L2.34845 1.95415H0.727073C0.325522 1.95415 0 1.62863 0 1.22707C0 0.825522 0.325522 0.5 0.727073 0.5H2.79923C3.19507 0.507287 3.53728 0.778079 3.63537 1.16164L4.20975 3.40829ZM5.69289 10.679H13.8943L14.4759 4.86244H4.52958L5.69289 10.679Z" fill="currentColor"/>
</svg>
