<svg width="17" height="22" viewBox="0 0 17 22" fill="none" xmlns="http://www.w3.org/2000/svg">
<path d="M9.17596 0.0795288H9.41395C11.9129 0.119194 13.797 0.763765 15.0663 2.01324C16.3555 3.26272 17.0001 4.79977 17.0001 6.6244C17.0001 8.3697 16.4249 9.78776 15.2746 10.8786C14.1441 11.9495 12.6368 12.6239 10.7527 12.9015V15.3707H6.64726V10.6406C10.9708 10.8786 13.1326 9.73818 13.1326 7.21939C13.1326 6.26741 12.7756 5.49392 12.0617 4.89894C11.3477 4.28411 10.4254 3.96679 9.29496 3.94695H9.11646C7.272 3.94695 5.38787 4.75019 3.46407 6.35666L0.786621 3.88745C3.18641 1.34884 5.98285 0.0795288 9.17596 0.0795288ZM8.69997 17.3044C9.31479 17.3044 9.84036 17.5028 10.2767 17.8994C10.713 18.2763 10.9312 18.7523 10.9312 19.3274C10.9312 19.8827 10.713 20.3587 10.2767 20.7554C9.84036 21.1322 9.31479 21.3206 8.69997 21.3206C8.06531 21.3206 7.52982 21.1322 7.0935 20.7554C6.65717 20.3587 6.43901 19.8827 6.43901 19.3274C6.43901 18.7523 6.65717 18.2763 7.0935 17.8994C7.52982 17.5028 8.06531 17.3044 8.69997 17.3044Z" fill="white"/>
</svg>
