<svg width="30" height="30" viewBox="0 0 30 30" fill="none" xmlns="http://www.w3.org/2000/svg">
<path fill-rule="evenodd" clip-rule="evenodd" d="M20.1525 16.8475L15.1525 21.8475L10.1525 16.8475L7.3125 14.0075C5.93178 12.6268 5.93178 10.3882 7.3125 9.0075C8.69321 7.62679 10.9318 7.62679 12.3125 9.0075L15.1525 11.8675L17.9925 9.0275C19.3732 7.64679 21.6118 7.64679 22.9925 9.0275C24.3732 10.4082 24.3732 12.6468 22.9925 14.0275L20.1525 16.8475ZM13.7525 7.6175C11.5958 5.46083 8.09917 5.46083 5.9425 7.6175C3.78582 9.77418 3.78582 13.2708 5.9425 15.4275L7.3625 16.8475L15.1525 24.6575L22.9625 16.8475L24.3825 15.4275C26.5392 13.2708 26.5392 9.77418 24.3825 7.6175C22.2258 5.46083 18.7292 5.46083 16.5725 7.6175L15.1525 9.0375L13.7525 7.6175Z" fill="currentColor"/>
</svg>
