<svg viewBox="0 0 17 17" fill="none" xmlns="http://www.w3.org/2000/svg">
<path fill-rule="evenodd" clip-rule="evenodd" d="M14.946 0.0639801L0.626033 5.70513C0.463011 5.76996 0.318444 5.87836 0.209005 6.01788C0.0995662 6.1574 0.0297919 6.32239 0.00762682 6.49365C-0.0145383 6.66491 0.0118374 6.83553 0.0837696 6.98581C0.155702 7.13609 0.27023 7.25985 0.414115 7.34288L3.55914 9.15716C3.76185 9.27341 4.00825 9.3009 4.24415 9.23358C4.48004 9.16625 4.68607 9.00964 4.81696 8.79819C4.94785 8.58673 4.9929 8.3378 4.94212 8.10609C4.89133 7.87437 4.74888 7.67888 4.54616 7.56264L2.98031 6.64883L13.6356 2.45301L9.47492 13.0236L7.68164 9.64678L9.83744 7.49099C10.0139 7.31452 10.1178 7.08001 10.1264 6.83897C10.1349 6.59793 10.0473 6.37011 9.88289 6.2057C9.71848 6.04129 9.49074 5.95377 9.2497 5.9623C9.00866 5.97082 8.77408 6.07469 8.59761 6.25116L5.93613 8.91264C5.78164 9.05683 5.67663 9.24556 5.63802 9.44836C5.59941 9.65115 5.62944 9.8562 5.72328 10.0305L8.73194 15.7007C8.81118 15.8508 8.9339 15.9718 9.08519 16.049C9.23649 16.1263 9.40994 16.1564 9.58485 16.136C9.75976 16.1156 9.92866 16.0454 10.0712 15.9339C10.2137 15.8224 10.3238 15.6743 10.3883 15.5073L16.0295 1.18738C16.0937 1.02301 16.1111 0.846999 16.0794 0.679952C16.0478 0.512905 15.9684 0.361711 15.8508 0.244033C15.7331 0.126354 15.5819 0.0470376 15.4148 0.0153918C15.2478 -0.016254 15.0719 0.00113375 14.9075 0.0653802L14.946 0.0639801Z" fill="currentColor"/>
</svg>
