<svg width="26" height="26" viewBox="0 0 26 26" fill="none" xmlns="http://www.w3.org/2000/svg">
<g clip-path="url(#clip0_437_26912)">
<path d="M13 -0.000244141C9.46833 -0.000244141 9.02742 0.0160059 7.64075 0.0777559C6.25625 0.142756 5.31375 0.360506 4.485 0.682256C3.63025 1.01376 2.90442 1.45901 2.18183 2.18159C1.45925 2.90417 1.01292 3.62892 0.6825 4.48476C0.36075 5.31351 0.141917 6.25601 0.078 7.64051C0.013 9.02717 0 9.46809 0 12.9998C0 16.5314 0.01625 16.9723 0.078 18.359C0.143 19.7424 0.36075 20.686 0.6825 21.5148C1.014 22.3684 1.45925 23.0953 2.18183 23.8179C2.90442 24.5394 3.62917 24.9868 4.485 25.3173C5.31483 25.6379 6.25733 25.8578 7.64075 25.9218C9.02742 25.9868 9.46833 25.9998 13 25.9998C16.5317 25.9998 16.9726 25.9835 18.3593 25.9218C19.7427 25.8568 20.6863 25.6379 21.515 25.3173C22.3687 24.9858 23.0956 24.5394 23.8182 23.8179C24.5397 23.0953 24.9871 22.3717 25.3175 21.5148C25.6382 20.686 25.8581 19.7424 25.922 18.359C25.987 16.9723 26 16.5314 26 12.9998C26 9.46809 25.9838 9.02717 25.922 7.64051C25.857 6.25709 25.6382 5.31242 25.3175 4.48476C24.986 3.63001 24.5397 2.90417 23.8182 2.18159C23.0956 1.45901 22.3719 1.01267 21.515 0.682256C20.6863 0.360506 19.7427 0.141673 18.3593 0.0777559C16.9726 0.0127559 16.5317 -0.000244141 13 -0.000244141ZM13 2.33976C16.4699 2.33976 16.8838 2.35709 18.2542 2.41667C19.5217 2.47626 20.2096 2.68642 20.6667 2.86626C21.2756 3.10134 21.7068 3.38301 22.1639 3.83692C22.6178 4.29192 22.8995 4.72417 23.1346 5.33301C23.3123 5.79017 23.5246 6.47809 23.582 7.74559C23.6438 9.11709 23.6578 9.52876 23.6578 12.9998C23.6578 16.4708 23.6416 16.8835 23.5777 18.2539C23.5116 19.5214 23.3003 20.2093 23.1216 20.6665C22.8789 21.2753 22.6027 21.7065 22.1477 22.1637C21.6938 22.6176 21.255 22.8993 20.6527 23.1343C20.1977 23.312 19.4989 23.5243 18.2314 23.5818C16.8513 23.6435 16.445 23.6576 12.9675 23.6576C9.48892 23.6576 9.08267 23.6413 7.70358 23.5774C6.435 23.5113 5.73625 23.3001 5.28125 23.1213C4.66483 22.8787 4.24125 22.6024 3.78733 22.1474C3.33125 21.6935 3.03983 21.2548 2.81233 20.6524C2.63358 20.1974 2.42342 19.4987 2.35733 18.2312C2.30858 16.8662 2.29125 16.4448 2.29125 12.9835C2.29125 9.52117 2.30858 9.09867 2.35733 7.71742C2.42342 6.44992 2.63358 5.75226 2.81233 5.29726C3.03983 4.67976 3.33125 4.25726 3.78733 3.80117C4.24125 3.34726 4.66483 3.05476 5.28125 2.82834C5.73625 2.64851 6.41983 2.43726 7.68733 2.37226C9.06858 2.32351 9.47483 2.30726 12.9513 2.30726L13 2.33976ZM13 6.32426C9.31125 6.32426 6.3245 9.31426 6.3245 12.9998C6.3245 16.6885 9.3145 19.6753 13 19.6753C16.6888 19.6753 19.6755 16.6853 19.6755 12.9998C19.6755 9.31101 16.6855 6.32426 13 6.32426ZM13 17.3331C10.6058 17.3331 8.66667 15.3939 8.66667 12.9998C8.66667 10.6056 10.6058 8.66642 13 8.66642C15.3942 8.66642 17.3333 10.6056 17.3333 12.9998C17.3333 15.3939 15.3942 17.3331 13 17.3331ZM21.4998 6.06101C21.4998 6.92226 20.8 7.62101 19.9398 7.62101C19.0786 7.62101 18.3798 6.92117 18.3798 6.06101C18.3798 5.20084 19.0797 4.50209 19.9398 4.50209C20.7989 4.50101 21.4998 5.20084 21.4998 6.06101Z" fill="#A6A6A7"/>
</g>
<defs>
<clipPath id="clip0_437_26912">
<rect width="26" height="26" fill="white" transform="translate(0 -0.000244141)"/>
</clipPath>
</defs>
</svg>
