<svg viewBox="0 0 18 18" fill="none" xmlns="http://www.w3.org/2000/svg">
<path fill-rule="evenodd" clip-rule="evenodd" d="M10.7671 8.36089H13.0736C13.4234 8.36089 13.6981 8.07175 13.6981 7.72307C13.6981 7.3659 13.4234 7.08526 13.0736 7.08526H10.7671C10.4174 7.08526 10.1426 7.3659 10.1426 7.72307C10.1426 8.07175 10.4174 8.36089 10.7671 8.36089ZM15.8132 3.93954C16.3211 3.93954 16.6542 4.11813 16.9872 4.50932C17.3203 4.90052 17.3786 5.4618 17.3037 5.9712L16.5126 11.55C16.3627 12.6224 15.4634 13.4124 14.4059 13.4124H5.32134C4.21387 13.4124 3.29792 12.5458 3.20632 11.4233L2.44025 2.1528L1.1829 1.93169C0.849824 1.87216 0.616673 1.54049 0.67496 1.20032C0.733248 0.852497 1.058 0.622032 1.3994 0.673908L3.38535 0.97921C3.66846 1.03109 3.87663 1.26835 3.90161 1.5575L4.05982 3.46245C4.0848 3.73544 4.3013 3.93954 4.56776 3.93954H15.8132ZM5.18794 14.7565C4.48849 14.7565 3.92226 15.3348 3.92226 16.0492C3.92226 16.755 4.48849 17.3333 5.18794 17.3333C5.87907 17.3333 6.4453 16.755 6.4453 16.0492C6.4453 15.3348 5.87907 14.7565 5.18794 14.7565ZM14.5556 14.7565C13.8562 14.7565 13.29 15.3348 13.29 16.0492C13.29 16.755 13.8562 17.3333 14.5556 17.3333C15.2468 17.3333 15.813 16.755 15.813 16.0492C15.813 15.3348 15.2468 14.7565 14.5556 14.7565Z" fill="currentColor"/>
</svg>
