<svg width="20" height="18" viewBox="0 0 20 18" fill="none" xmlns="http://www.w3.org/2000/svg">
<path fill-rule="evenodd" clip-rule="evenodd" d="M5.396 10.0096L10.0096 14.6232L14.6232 10.0096L17.2437 7.38907C18.5178 6.11506 18.5178 4.04948 17.2437 2.77547C15.9697 1.50145 13.9041 1.50145 12.6301 2.77547L10.0096 5.41445L7.38908 2.79392C6.11506 1.51991 4.04948 1.51991 2.77547 2.79392C1.50145 4.06793 1.50145 6.13352 2.77547 7.40753L5.396 10.0096ZM11.301 1.49251C13.291 -0.497502 16.5175 -0.497502 18.5075 1.49251C20.4975 3.48251 20.4975 6.70895 18.5075 8.69896L17.1972 10.0092L10.0092 17.2157L2.80277 10.0092L1.49251 8.69896C-0.497502 6.70895 -0.497502 3.48251 1.49251 1.49251C3.48251 -0.497502 6.70895 -0.497502 8.69896 1.49251L10.0092 2.80277L11.301 1.49251Z" fill="url(#paint0_linear_23_54059)"/>
<defs>
<linearGradient id="paint0_linear_23_54059" x1="-7.45058e-08" y1="8.60784" x2="20" y2="8.60784" gradientUnits="userSpaceOnUse">
<stop stop-color="#8CD23C"/>
<stop offset="1" stop-color="#417A00"/>
</linearGradient>
</defs>
</svg>
