<svg width="26" height="26" viewBox="0 0 26 26" fill="none" xmlns="http://www.w3.org/2000/svg">
<g clip-path="url(#clip0_437_26914)">
<path d="M21.9072 -0.000244141C23.4304 -0.000244141 24.6589 1.23151 24.7315 2.68101V25.9998L21.8314 23.5373L20.2389 22.0878L18.5012 20.5733L19.2271 22.9621H4.01924C2.50041 22.9621 1.26758 21.8083 1.26758 20.2798V2.68642C1.26758 1.23692 2.50258 0.00300586 4.02466 0.00300586H21.8997L21.9072 -0.000244141ZM15.2794 6.15634H15.2469L15.0281 6.37301C17.2738 7.02301 18.3604 8.03809 18.3604 8.03809C16.9131 7.31442 15.6087 6.95259 14.3044 6.80634C13.3619 6.66009 12.4194 6.73701 11.6232 6.80634H11.4065C10.8973 6.80634 9.814 7.02301 8.36233 7.60259C7.85641 7.82251 7.56608 7.96659 7.56608 7.96659C7.56608 7.96659 8.65158 6.88109 11.0436 6.30151L10.8973 6.15526C10.8973 6.15526 9.08599 6.08592 7.13058 7.53109C7.13058 7.53109 5.17516 10.9371 5.17516 15.1361C5.17516 15.1361 6.2585 17.0211 9.23008 17.0926C9.23008 17.0926 9.66341 16.5152 10.1022 16.0071C8.43383 15.5001 7.78383 14.4861 7.78383 14.4861C7.78383 14.4861 7.929 14.5576 8.14674 14.7028H8.21174C8.24425 14.7028 8.25941 14.719 8.27674 14.7353V14.7418C8.29408 14.7591 8.30924 14.7743 8.34174 14.7743C8.69924 14.9216 9.05675 15.0668 9.34925 15.2076C9.85408 15.4264 10.503 15.6442 11.2992 15.7883C12.3067 15.9345 13.4616 16.0049 14.7767 15.7883C15.4267 15.642 16.0767 15.499 16.7267 15.2087C17.1492 14.992 17.6692 14.7753 18.2402 14.4103C18.2402 14.4103 17.5902 15.4243 15.8514 15.9313C16.2089 16.4361 16.7127 17.0146 16.7127 17.0146C19.6853 16.9496 20.8402 15.0646 20.9052 15.1448C20.9052 10.9523 18.9389 7.53976 18.9389 7.53976C17.1677 6.22459 15.5102 6.17476 15.2177 6.17476L15.2783 6.15309L15.2794 6.15634ZM15.4614 10.9371C16.223 10.9371 16.8372 11.5871 16.8372 12.3833C16.8372 13.185 16.2197 13.835 15.4614 13.835C14.7031 13.835 14.0856 13.185 14.0856 12.3898C14.0877 11.5882 14.7063 10.9403 15.4614 10.9403V10.9371ZM10.5398 10.9371C11.2982 10.9371 11.9113 11.5871 11.9113 12.3833C11.9113 13.185 11.2938 13.835 10.5355 13.835C9.77716 13.835 9.15966 13.185 9.15966 12.3898C9.15966 11.5882 9.77716 10.9403 10.5355 10.9403L10.5398 10.9371Z" fill="#A6A6A7"/>
</g>
<defs>
<clipPath id="clip0_437_26914">
<rect width="26" height="26" fill="white" transform="translate(0 -0.000244141)"/>
</clipPath>
</defs>
</svg>
