<svg width="30" height="30" viewBox="0 0 30 30" fill="none" xmlns="http://www.w3.org/2000/svg">
<path fill-rule="evenodd" clip-rule="evenodd" d="M23 16C24.6569 16 26 14.6569 26 13V9C26 7.34315 24.6569 6 23 6H19C17.3431 6 16 7.34315 16 9V13C16 14.6569 17.3431 16 19 16H23ZM24 13C24 13.5523 23.5523 14 23 14H19C18.4477 14 18 13.5523 18 13V9C18 8.44772 18.4477 8 19 8H23C23.5523 8 24 8.44772 24 9V13Z" fill="currentColor"/>
<path fill-rule="evenodd" clip-rule="evenodd" d="M11 16C12.6569 16 14 14.6569 14 13V9C14 7.34315 12.6569 6 11 6H7C5.34315 6 4 7.34315 4 9V13C4 14.6569 5.34315 16 7 16H11ZM12 13C12 13.5523 11.5523 14 11 14H7C6.44772 14 6 13.5523 6 13V9C6 8.44772 6.44772 8 7 8H11C11.5523 8 12 8.44772 12 9V13Z" fill="currentColor"/>
<path fill-rule="evenodd" clip-rule="evenodd" d="M25 19C25 18.4477 24.5523 18 24 18H18C17.4477 18 17 18.4477 17 19C17 19.5523 17.4477 20 18 20H24C24.5523 20 25 19.5523 25 19Z" fill="currentColor"/>
<path fill-rule="evenodd" clip-rule="evenodd" d="M25 23C25 22.4477 24.5523 22 24 22H20C19.4477 22 19 22.4477 19 23C19 23.5523 19.4477 24 20 24H24C24.5523 24 25 23.5523 25 23Z" fill="currentColor"/>
<path fill-rule="evenodd" clip-rule="evenodd" d="M13 19C13 18.4477 12.5523 18 12 18H6C5.44772 18 5 18.4477 5 19C5 19.5523 5.44772 20 6 20H12C12.5523 20 13 19.5523 13 19Z" fill="currentColor"/>
<path fill-rule="evenodd" clip-rule="evenodd" d="M13 23C13 22.4477 12.5523 22 12 22H8C7.44772 22 7 22.4477 7 23C7 23.5523 7.44772 24 8 24H12C12.5523 24 13 23.5523 13 23Z" fill="currentColor"/>
</svg>
