<svg width="17" height="17" viewBox="0 0 17 17" fill="none" xmlns="http://www.w3.org/2000/svg">
<path fill-rule="evenodd" clip-rule="evenodd" d="M15.98 3.24842H14.8835C14.9276 3.12599 14.9589 2.99925 14.977 2.87025C15.1372 1.84138 14.6456 0.820701 13.7457 0.313902C12.8458 -0.192898 11.7287 -0.0781714 10.948 0.601242L8.262 2.92182L5.5845 0.601242C4.80375 -0.0781714 3.68672 -0.192898 2.78682 0.313902C1.88691 0.820701 1.39528 1.84138 1.5555 2.87025C1.57358 2.99925 1.60491 3.12599 1.649 3.24842H1.02C0.45667 3.24842 0 3.71018 0 4.27979V7.3739C0 7.9435 0.45667 8.40526 1.02 8.40526H1.7V14.4216C1.7 15.8456 2.84167 17 4.25 17H12.75C14.1583 17 15.3 15.8456 15.3 14.4216V8.40526H15.98C16.5433 8.40526 17 7.9435 17 7.3739V4.27979C17 3.71018 16.5433 3.24842 15.98 3.24842ZM12.0529 1.90764C12.3064 1.68352 12.6759 1.65582 12.9593 1.83968C13.2428 2.02354 13.3719 2.37469 13.2761 2.70112C13.1803 3.02754 12.8826 3.25064 12.5459 3.24842H10.4974L12.0529 1.90764ZM3.67281 1.79177C3.40454 1.91541 3.23174 2.18537 3.23007 2.48348C3.23007 2.90594 3.56877 3.24841 3.98657 3.24841H6.03507L4.47957 1.90763C4.25596 1.71335 3.94109 1.66813 3.67281 1.79177ZM13.6003 14.4216C13.6003 14.8962 13.2198 15.281 12.7503 15.281H4.25032C3.78088 15.281 3.40032 14.8962 3.40032 14.4216V8.40524H13.6003V14.4216ZM1.70016 6.68629H15.3002V4.96735H1.70016V6.68629Z" fill="currentColor"/>
</svg>
