<svg width="20" height="18" viewBox="0 0 20 18" fill="none" xmlns="http://www.w3.org/2000/svg">
<path fill-rule="evenodd" clip-rule="evenodd" d="M17.2727 5.10197H14.5455V3.28379C14.5455 1.77756 13.3244 0.556519 11.8182 0.556519H2.72727C1.22104 0.556519 0 1.77756 0 3.28379V8.73834C0 10.2446 1.22104 11.4656 2.72727 11.4656H4.13636L5.45455 12.9292V13.2565C5.45455 14.7628 6.67559 15.9838 8.18182 15.9838H11.4091L12.7818 17.5383C13.0407 17.8319 13.4132 18 13.8045 18C14.1959 18 14.5684 17.8319 14.8273 17.5383L16.2 15.9838H17.2727C18.779 15.9838 20 14.7628 20 13.2565V7.80197C19.985 6.3064 18.7684 5.1019 17.2727 5.10197ZM2.72727 9.64743C2.2252 9.64743 1.81818 9.24041 1.81818 8.73834V3.28379C1.81818 2.78171 2.2252 2.3747 2.72727 2.3747H11.8182C12.3203 2.3747 12.7273 2.78171 12.7273 3.28379V8.73834C12.7273 9.24041 12.3203 9.64743 11.8182 9.64743H8.11818L6.53636 11.4656L4.95455 9.64743H2.72727ZM17.2727 14.1929C17.7748 14.1929 18.1818 13.7859 18.1818 13.2838V7.84742C18.1818 7.34534 17.7748 6.93833 17.2727 6.93833H14.5455V8.75651C14.5455 10.2627 13.3244 11.4838 11.8182 11.4838H8.92727L7.55455 13.0383C7.4717 13.1321 7.37696 13.2146 7.27273 13.2838C7.27273 13.7859 7.67974 14.1929 8.18182 14.1929H12.2273L13.8091 16.0838L15.3909 14.1929H17.2727Z" fill="currentColor"/>
</svg>
