<svg width="30" height="30" viewBox="0 0 30 30" fill="none" xmlns="http://www.w3.org/2000/svg">
<path fill-rule="evenodd" clip-rule="evenodd" d="M22.0161 24.9999C23.5605 24.9999 24.8125 23.728 24.8125 22.159C24.8125 20.59 23.5605 19.3181 22.0161 19.3181C20.4717 19.3181 19.2197 20.59 19.2197 22.159C19.2197 23.728 20.4717 24.9999 22.0161 24.9999ZM22.016 22.7272C21.7096 22.7211 21.4627 22.4702 21.4568 22.159C21.4568 21.8452 21.7071 21.5908 22.016 21.5908C22.3249 21.5908 22.5753 21.8452 22.5753 22.159C22.5753 22.4728 22.3249 22.7272 22.016 22.7272Z" fill="currentColor"/>
<path d="M24.8111 16.3636C25.4289 16.3636 25.9297 16.8724 25.9297 17.5C25.9297 18.1276 25.4289 18.6364 24.8111 18.6364H14.5092L13.0327 24.1591C12.869 24.7647 12.2531 25.1209 11.6569 24.9545C11.0608 24.7882 10.7102 24.1625 10.8739 23.5568L12.1938 18.6364H10.4489C9.83296 18.6382 9.29627 18.2104 9.15135 17.6023L6.60105 7.27273H4.11785C3.50009 7.27273 2.9993 6.76396 2.9993 6.13636C2.9993 5.50877 3.50009 5 4.11785 5H7.30574C7.92026 5.00231 8.45475 5.42829 8.60326 6.03409L11.1424 16.3636H24.8111Z" fill="currentColor"/>
<path fill-rule="evenodd" clip-rule="evenodd" d="M24.0735 15.2273C24.7097 15.2307 25.2608 14.7799 25.3934 14.1477L26.9705 6.64773C27.0548 6.24596 26.9562 5.82701 26.7023 5.50732C26.4484 5.18763 26.0662 5.00126 25.6618 5H11.6463C11.2459 5.00801 10.8699 5.19724 10.6211 5.51602C10.3722 5.83479 10.2765 6.24981 10.36 6.64773L11.9371 14.1477C12.0697 14.7799 12.6208 15.2307 13.257 15.2273H24.0735ZM13.9618 12.9545L12.7649 7.27268H24.5545L23.3577 12.9545H13.9618Z" fill="currentColor"/>
</svg>
