<svg width="37" height="26" viewBox="0 0 37 26" fill="none" xmlns="http://www.w3.org/2000/svg">
<path d="M36.2275 4.01445C36.0131 3.24185 35.604 2.53794 35.0399 1.97075C34.4758 1.40356 33.7757 0.992282 33.0073 0.776661C30.1234 -0.000221866 18.5165 -0.000222144 18.5165 -0.000222144C18.5165 -0.000222144 6.93887 -0.0157285 4.02558 0.776661C3.25718 0.992282 2.55709 1.40356 1.99298 1.97075C1.42888 2.53794 1.01983 3.24185 0.805382 4.01445C0.25869 6.98321 -0.0108319 9.99685 0.000333112 13.016C-0.00872117 16.0239 0.260792 19.026 0.805382 21.9835C1.01983 22.7561 1.42888 23.46 1.99298 24.0272C2.55709 24.5944 3.25718 25.0057 4.02558 25.2213C6.90648 25.9998 18.5165 25.9998 18.5165 25.9998C18.5165 25.9998 30.0925 25.9998 33.0073 25.2213C33.7757 25.0057 34.4758 24.5944 35.0399 24.0272C35.604 23.46 36.0131 22.7561 36.2275 21.9835C36.7608 19.0249 37.0189 16.0228 36.9987 13.016C37.021 9.99792 36.7629 6.98428 36.2275 4.01445V4.01445ZM14.812 18.5845V7.43056L24.4726 13.016L14.812 18.5845Z" fill="#A6A6A7"/>
</svg>
