<svg width="110" height="45" viewBox="0 0 110 45" fill="none" xmlns="http://www.w3.org/2000/svg">
<path d="M10.9312 42H6.52037V27.8725L4.21907 30.6213L1.37439 28.4478L8.31028 20.1056H10.9312V42ZM75.9165 42H73.1996L72.9759 39.7307C71.6761 41.3714 69.9075 42.1918 67.6701 42.1918C65.4327 42.1918 63.5682 41.4034 62.0767 39.8265C60.6064 38.2497 59.8712 36.3107 59.8712 34.0093C59.8712 31.708 60.6064 29.769 62.0767 28.1921C63.5682 26.594 65.4327 25.795 67.6701 25.795C69.4174 25.795 70.8131 26.3916 71.8572 27.5849V19.6262H75.9165V42ZM68.0537 38.2604C69.1617 38.2604 70.1206 37.8662 70.9303 37.0778C71.7613 36.2893 72.1768 35.2665 72.1768 34.0093C72.1768 32.7521 71.7613 31.7293 70.9303 30.9409C70.1206 30.1312 69.1617 29.7264 68.0537 29.7264C66.9456 29.7264 65.9761 30.1312 65.1451 30.9409C64.3353 31.7293 63.9305 32.7521 63.9305 34.0093C63.9305 35.2665 64.3353 36.2893 65.1451 37.0778C65.9548 37.8662 66.9243 38.2604 68.0537 38.2604Z" fill="white"/>
<path d="M49.8032 42V42.7991H50.6022V42H49.8032ZM47.0864 42L46.2911 42.0784L46.3622 42.7991H47.0864V42ZM46.8626 39.7307L47.6578 39.6523L47.4639 37.6849L46.2363 39.2345L46.8626 39.7307ZM35.9634 39.8265L35.3789 40.3715L35.3829 40.3757L35.9634 39.8265ZM35.9634 28.1921L35.3792 27.6469L35.3789 27.6472L35.9634 28.1921ZM46.8626 28.288L46.2332 28.7803L47.4621 30.3517L47.6578 28.3664L46.8626 28.288ZM47.0864 26.0187V25.2196H46.3622L46.2911 25.9403L47.0864 26.0187ZM49.8032 26.0187H50.6022V25.2196H49.8032V26.0187ZM44.817 37.0778L44.267 36.498L44.2596 36.5052L44.817 37.0778ZM44.817 30.9409L44.252 31.506L44.2594 31.5134L44.267 31.5206L44.817 30.9409ZM39.0318 30.9409L39.5892 31.5134L39.5894 31.5132L39.0318 30.9409ZM39.0318 37.0778L39.5892 36.5052L39.5892 36.5052L39.0318 37.0778ZM49.8032 41.2009H47.0864V42.7991H49.8032V41.2009ZM47.8816 41.9216L47.6578 39.6523L46.0674 39.8091L46.2911 42.0784L47.8816 41.9216ZM46.2363 39.2345C45.0997 40.6692 43.5695 41.3927 41.5568 41.3927V42.9908C44.0189 42.9908 46.0259 42.0736 47.489 40.2268L46.2363 39.2345ZM41.5568 41.3927C39.5314 41.3927 37.8794 40.6892 36.5439 39.2774L35.3829 40.3757C37.0306 42.1175 39.1074 42.9908 41.5568 42.9908V41.3927ZM36.5478 39.2816C35.2253 37.8633 34.557 36.1233 34.557 34.0093H32.9589C32.9589 36.498 33.7609 38.6361 35.3789 40.3715L36.5478 39.2816ZM34.557 34.0093C34.557 31.8954 35.2253 30.1554 36.5478 28.7371L35.3789 27.6472C33.7609 29.3825 32.9589 31.5207 32.9589 34.0093H34.557ZM36.5475 28.7374C37.884 27.3054 39.535 26.594 41.5568 26.594V24.9959C39.1038 24.9959 37.0259 25.8826 35.3792 27.6469L36.5475 28.7374ZM41.5568 26.594C43.5655 26.594 45.0951 27.325 46.2332 28.7803L47.4921 27.7958C46.0305 25.9269 44.0229 24.9959 41.5568 24.9959V26.594ZM47.6578 28.3664L47.8816 26.0971L46.2911 25.9403L46.0674 28.2096L47.6578 28.3664ZM47.0864 26.8178H49.8032V25.2196H47.0864V26.8178ZM49.0041 26.0187V42H50.6022V26.0187H49.0041ZM41.9404 39.0594C43.2612 39.0594 44.4189 38.5807 45.3745 37.6503L44.2596 36.5052C43.5957 37.1516 42.8356 37.4613 41.9404 37.4613V39.0594ZM45.367 37.6574C46.3735 36.7026 46.8626 35.4621 46.8626 34.0093H45.2645C45.2645 35.071 44.9226 35.8761 44.267 36.4981L45.367 37.6574ZM46.8626 34.0093C46.8626 32.5566 46.3735 31.3161 45.367 30.3612L44.267 31.5206C44.9226 32.1426 45.2645 32.9477 45.2645 34.0093H46.8626ZM45.382 30.3759C44.4281 29.4219 43.2681 28.9273 41.9404 28.9273V30.5254C42.8287 30.5254 43.5865 30.8405 44.252 31.506L45.382 30.3759ZM41.9404 28.9273C40.6134 28.9273 39.4466 29.4211 38.4741 30.3686L39.5894 31.5132C40.279 30.8413 41.0513 30.5254 41.9404 30.5254V28.9273ZM38.4743 30.3684C37.492 31.3249 37.0181 32.5632 37.0181 34.0093H38.6163C38.6163 32.9411 38.9521 32.1338 39.5892 31.5134L38.4743 30.3684ZM37.0181 34.0093C37.0181 35.4555 37.492 36.6938 38.4743 37.6503L39.5892 36.5052C38.9521 35.8849 38.6163 35.0776 38.6163 34.0093H37.0181ZM38.4743 37.6503C39.4331 38.5838 40.6026 39.0594 41.9404 39.0594V37.4613C41.0194 37.4613 40.2499 37.1485 39.5892 36.5052L38.4743 37.6503ZM52.8901 23.9731L52.354 24.5656L52.3608 24.5718L52.3678 24.5778L52.8901 23.9731ZM52.8901 20.9686L52.3678 20.3638L52.3608 20.3699L52.354 20.3761L52.8901 20.9686ZM56.2781 20.9686L55.742 21.5611L55.7488 21.5673L55.7558 21.5733L56.2781 20.9686ZM56.2781 23.9731L55.7558 23.3683L55.7488 23.3744L55.742 23.3805L56.2781 23.9731ZM52.5704 42H51.7714V42.7991H52.5704V42ZM52.5704 26.0187V25.2196H51.7714V26.0187H52.5704ZM56.6297 26.0187H57.4288V25.2196H56.6297V26.0187ZM56.6297 42V42.7991H57.4288V42H56.6297ZM54.5841 23.7813C54.1015 23.7813 53.7259 23.6391 53.4124 23.3683L52.3678 24.5778C52.9918 25.1168 53.7456 25.3794 54.5841 25.3794V23.7813ZM53.4262 23.3805C53.1439 23.1252 53.0179 22.8388 53.0179 22.4708H51.4198C51.4198 23.2962 51.7412 24.0112 52.354 24.5656L53.4262 23.3805ZM53.0179 22.4708C53.0179 22.1029 53.1439 21.8165 53.4262 21.5611L52.354 20.3761C51.7412 20.9304 51.4198 21.6455 51.4198 22.4708H53.0179ZM53.4124 21.5733C53.7259 21.3026 54.1015 21.1604 54.5841 21.1604V19.5622C53.7456 19.5622 52.9918 19.8249 52.3678 20.3638L53.4124 21.5733ZM54.5841 21.1604C55.0955 21.1604 55.4607 21.3066 55.742 21.5611L56.8142 20.3761C56.2005 19.8208 55.4364 19.5622 54.5841 19.5622V21.1604ZM55.7558 21.5733C56.0565 21.833 56.1822 22.1164 56.1822 22.4708H57.7804C57.7804 21.632 57.4373 20.9139 56.8004 20.3638L55.7558 21.5733ZM56.1822 22.4708C56.1822 22.8253 56.0565 23.1086 55.7558 23.3683L56.8004 24.5778C57.4373 24.0278 57.7804 23.3097 57.7804 22.4708H56.1822ZM55.742 23.3805C55.4607 23.635 55.0955 23.7813 54.5841 23.7813V25.3794C55.4364 25.3794 56.2005 25.1209 56.8142 24.5656L55.742 23.3805ZM53.3695 42V26.0187H51.7714V42H53.3695ZM52.5704 26.8178H56.6297V25.2196H52.5704V26.8178ZM55.8306 26.0187V42H57.4288V26.0187H55.8306ZM56.6297 41.2009H52.5704V42.7991H56.6297V41.2009Z" fill="white"/>
<path opacity="0.35" d="M83.0936 24.9544C83.4238 24.9544 83.7062 25.0609 83.9406 25.274C84.175 25.4764 84.2922 25.7321 84.2922 26.0411C84.2922 26.3394 84.175 26.5951 83.9406 26.8082C83.7062 27.0107 83.4238 27.1119 83.0936 27.1119C82.7526 27.1119 82.465 27.0107 82.2306 26.8082C81.9962 26.5951 81.879 26.3394 81.879 26.0411C81.879 25.7321 81.9962 25.4764 82.2306 25.274C82.465 25.0609 82.7526 24.9544 83.0936 24.9544ZM91.6231 20.8632H90.808C90.0835 20.8632 89.5295 21.0922 89.146 21.5504C88.7624 21.9978 88.5706 22.6105 88.5706 23.3882V27H86.541V19.0093H87.8994L88.1232 20.7353C88.7731 19.5101 89.8278 18.8975 91.2875 18.8975H91.6231V20.8632ZM101.157 27H99.7983L99.6544 25.7535C99.1004 26.6591 98.1895 27.1119 96.9216 27.1119C95.7923 27.1119 94.924 26.7656 94.3167 26.0731C93.72 25.3699 93.4217 24.4217 93.4217 23.2284V19.0093H95.4513V23.1006C95.4513 24.4643 96.048 25.1462 97.2413 25.1462C97.8379 25.1462 98.3013 24.965 98.6316 24.6028C98.9619 24.2299 99.1271 23.6706 99.1271 22.9248V19.0093H101.157V27Z" fill="white"/>
<path d="M9.57332 8.85019C8.43671 8.1569 8.0803 6.65091 8.95673 5.64872C10.3606 4.04344 12.0788 2.71712 14.019 1.75264C16.6936 0.423041 19.6885 -0.168596 22.6815 0.0413957C25.6745 0.251387 28.5523 1.25506 31.0051 2.94439C33.4579 4.63372 35.3929 6.94476 36.6018 9.62878C37.8107 12.3128 38.2477 15.2682 37.8659 18.1769C37.484 21.0856 36.2978 23.8374 34.4348 26.1363C32.5717 28.4352 30.1025 30.194 27.2928 31.2236C25.2224 31.9822 23.0248 32.3237 20.8312 32.2368C19.5329 32.1853 18.6865 30.9388 18.9289 29.6624V29.6624C19.1686 28.4007 20.3859 27.5927 21.67 27.5745C23.0118 27.5555 24.3462 27.3112 25.6136 26.8468C27.6088 26.1157 29.3623 24.8667 30.6853 23.2342C32.0082 21.6018 32.8506 19.6476 33.1218 17.5821C33.3929 15.5166 33.0826 13.4179 32.2241 11.5119C31.3656 9.60591 29.9916 7.96479 28.2498 6.76516C26.508 5.56553 24.4644 4.8528 22.339 4.70368C20.2136 4.55456 18.0868 4.9747 16.1876 5.91887C14.9933 6.51257 13.9174 7.29933 13.0027 8.24083C12.1017 9.16826 10.6772 9.52352 9.57332 8.85019V8.85019Z" fill="white"/>
<path d="M17 42V42C19.4853 42 21.5 39.9853 21.5 37.5V9.75V9.75C19.0147 9.75 17 11.7647 17 14.25V42Z" fill="white"/>
</svg>
